<?xml version="1.0" standalone="no"?>
<!DOCTYPE svg PUBLIC "-//W3C//DTD SVG 20010904//EN"
 "http://www.w3.org/TR/2001/REC-SVG-20010904/DTD/svg10.dtd">
<svg version="1.0" xmlns="http://www.w3.org/2000/svg"
 width="3300.000000pt" height="3300.000000pt" viewBox="0 0 3300.000000 3300.000000"
 preserveAspectRatio="xMidYMid meet">

<g transform="translate(0.000000,3300.000000) scale(0.100000,-0.100000)"
fill="#000000" stroke="none">
<path d="M8050 32985 c-298 -50 -555 -182 -764 -391 -497 -496 -541 -1275
-106 -1834 39 -50 2308 -2128 7640 -6998 4171 -3810 7667 -7002 7767 -7094
l182 -167 -7767 -7095 c-5463 -4990 -7783 -7116 -7822 -7166 -130 -167 -219
-354 -268 -564 -22 -96 -26 -134 -26 -286 -1 -194 12 -281 65 -443 133 -409
464 -740 874 -876 142 -47 229 -62 390 -68 185 -7 319 12 486 67 220 73 362
161 579 362 80 74 3808 3479 8285 7567 4477 4088 8162 7456 8189 7484 129 138
230 306 290 488 64 191 71 245 71 529 0 284 -7 338 -71 529 -60 182 -161 350
-290 488 -27 28 -3712 3396 -8189 7484 -4477 4088 -8205 7493 -8285 7567 -211
195 -350 283 -561 357 -199 69 -470 94 -669 60z"/>
</g>
</svg>
